<svg id="Ebene_1" data-name="Ebene 1" xmlns="http://www.w3.org/2000/svg" xmlns:xlink="http://www.w3.org/1999/xlink" viewBox="0 0 196 41.75" width="512" height="512">
  <defs>
    <style>
      .cls-1 {
        fill: none;
      }

      .cls-2 {
        clip-path: url(#clip-path);
      }

      .cls-3 {
        fill: #868789;
      }

      .cls-4 {
        fill: #1a171b;
      }

      .cls-5 {
        fill: #fff;
      }

      .cls-6 {
        fill: #c5c6c8;
      }

      .cls-7 {
        fill: #b7331c;
      }

      .cls-8 {
        fill: #ef8747;
      }
    </style>
    <clipPath id="clip-path" transform="translate(0 0)">
      <rect class="cls-1" width="196" height="41.75"/>
    </clipPath>
  </defs>
  <title>Footer</title>
  <g class="cls-2">
    <path class="cls-3" d="M42.12,16.14,25.37.2a.74.74,0,0,0-.9-.09.32.32,0,0,1,.47.28V11.77l11.3,7.65a.74.74,0,0,1,.33.61V41.28H42a.44.44,0,0,0,.44-.44V16.79a.89.89,0,0,0-.28-.64" transform="translate(0 0)"/>
    <path class="cls-4" d="M19.71,8.7a.74.74,0,0,1,.75,0l4.48,3V.39a.32.32,0,0,0-.47-.28L4.9,13.15a.66.66,0,0,0-.3.55v3.62L19.71,8.7" transform="translate(0 0)"/>
    <path class="cls-5" d="M30.74,41.28V24.14a.67.67,0,0,0-.39-.6L15.9,16.82a.75.75,0,0,0-.63,0,.22.22,0,0,1,.32.2V41.28Z" transform="translate(0 0)"/>
    <path class="cls-6" d="M15.59,17a.23.23,0,0,0-.32-.2L.39,23.74a.67.67,0,0,0-.39.61V40.84a.44.44,0,0,0,.44.44H15.59Z" transform="translate(0 0)"/>
    <path class="cls-7" d="M15.27,16.83h0a.75.75,0,0,1,.63,0l4.18,1.94V8.93a.26.26,0,0,0-.37-.23L2.65,18.44a.68.68,0,0,0-.35.6v3.82Z" transform="translate(0 0)"/>
    <path class="cls-8" d="M36.24,19.42,20.46,8.74a.74.74,0,0,0-.76,0,.26.26,0,0,1,.37.23v9.84l10.27,4.77a.67.67,0,0,1,.39.61V41.28h5.83V20a.74.74,0,0,0-.33-.61" transform="translate(0 0)"/>
    <path class="cls-4" d="M90.74,12.44H87.26a.43.43,0,0,0-.43.43v3.29a.43.43,0,0,0,.43.43h3.48a.43.43,0,0,0,.43-.43V12.88a.43.43,0,0,0-.43-.43" transform="translate(0 0)"/>
    <path class="cls-4" d="M90.65,20.52H87.34a.43.43,0,0,0-.43.43v19.9a.43.43,0,0,0,.43.43h3.31a.43.43,0,0,0,.43-.43V21a.43.43,0,0,0-.43-.43" transform="translate(0 0)"/>
    <path class="cls-4" d="M127,23.84a5,5,0,0,1,4.32,2.26.39.39,0,0,0,.6.09l2.17-1.79c.33-.26.31-.43.1-.72a8.45,8.45,0,0,0-7.2-3.61c-4.07,0-7.06,2-8.23,5.63a17.9,17.9,0,0,0-.65,5.19,17.81,17.81,0,0,0,.65,5.24c1.17,3.58,4.16,5.63,8.23,5.63a8.42,8.42,0,0,0,7.1-3.49c.38-.46.25-.63.09-.76l-2.25-1.85c-.4-.32-.6,0-.79.24A4.76,4.76,0,0,1,127,38a4.19,4.19,0,0,1-4.31-3,13.35,13.35,0,0,1-.45-4.08,13.18,13.18,0,0,1,.45-4,4.19,4.19,0,0,1,4.31-3" transform="translate(0 0)"/>
    <path class="cls-4" d="M82.61,20.52H79.23a.52.52,0,0,0-.56.43L74.49,35.12H74.4L70,21a.59.59,0,0,0-.56-.43H66.92a.6.6,0,0,0-.56.43L62,35.12h-.09L57.54,21a.52.52,0,0,0-.56-.43H53.63a.29.29,0,0,0-.3.43l6.5,19.9a.55.55,0,0,0,.52.43h2.79a.54.54,0,0,0,.52-.43l4.44-14h.09l4.39,14a.55.55,0,0,0,.52.43h2.76a.54.54,0,0,0,.52-.43L82.91,21a.29.29,0,0,0-.3-.43" transform="translate(0 0)"/>
    <path class="cls-4" d="M169.44,28.91l-2.12-.21c-3.14-.31-3.77-1.19-3.77-2.52,0-1.6,1.35-2.57,3.62-2.56a10.82,10.82,0,0,1,5.53,1.7c.17.09.39.24.7-.2l1.61-2a.44.44,0,0,0-.08-.6,12.53,12.53,0,0,0-7.54-2.42c-4.87,0-7.77,2.4-7.77,6.42,0,3.46,2.17,5.51,6.27,6l2.16.21c3.14.34,3.73,1.17,3.73,2.61,0,1.82-1.54,2.86-4.21,2.86a9.55,9.55,0,0,1-6.21-2.35c-.28-.25-.47-.23-.68-.07l-2,2.19a.45.45,0,0,0,.09.69,12.75,12.75,0,0,0,8.63,3.19c5.27,0,8.41-2.57,8.41-6.88,0-3.51-2.18-5.57-6.31-6" transform="translate(0 0)"/>
    <path class="cls-4" d="M146.06,20.06a11.5,11.5,0,0,0-7.23,2.17.46.46,0,0,0-.08.56l1.36,2.32c.13.21.35.28.74,0a7.8,7.8,0,0,1,4.87-1.45c3.9,0,4.64,1.31,4.64,3.74v1.24a.22.22,0,0,1-.24.26h-4.64c-5.18.07-7.91,2.31-7.91,6.5,0,3.91,2.64,6.33,7,6.33,2.15,0,4.49-1.08,5.38-2.58h0v1.68a.43.43,0,0,0,.43.43h3.39a.43.43,0,0,0,.43-.43V27.2c0-5.14-2.27-7.14-8.17-7.14m-.63,18.17c-1.82,0-4-.51-4-2.94,0-2.15,1.43-3.06,4.79-3.07h3.84a.23.23,0,0,1,.26.26v2c0,2.34-1.83,3.75-4.89,3.75" transform="translate(0 0)"/>
    <path class="cls-4" d="M187.83,20.06a11.5,11.5,0,0,0-7.23,2.17.46.46,0,0,0-.08.56l1.35,2.32c.13.21.36.28.73,0a7.82,7.82,0,0,1,4.88-1.45c3.9,0,4.64,1.31,4.64,3.74v1.24a.22.22,0,0,1-.24.26h-4.64c-5.18.07-7.91,2.31-7.91,6.5,0,3.91,2.63,6.33,7,6.33,2.15,0,4.49-1.08,5.38-2.58h0v1.68a.43.43,0,0,0,.43.43h3.39a.43.43,0,0,0,.43-.43V27.2c0-5.14-2.27-7.14-8.17-7.14m-.62,18.17c-1.83,0-4-.51-4-2.94,0-2.15,1.43-3.06,4.79-3.07h3.84a.23.23,0,0,1,.26.26v2c0,2.34-1.83,3.75-4.89,3.75" transform="translate(0 0)"/>
    <path class="cls-4" d="M106.37,20.12a6.75,6.75,0,0,0-5.43,2.51h0V21a.43.43,0,0,0-.43-.43H97.15a.43.43,0,0,0-.43.43v19.9a.43.43,0,0,0,.43.43h3.32a.43.43,0,0,0,.43-.43V28.62c0-2.78,1.74-4.65,4.34-4.65,3.49,0,4.22,2.64,4.22,4.86v12a.43.43,0,0,0,.43.43h3.31a.43.43,0,0,0,.43-.43V28c0-4.89-2.75-7.87-7.27-7.87" transform="translate(0 0)"/>
  </g>
</svg>
