<svg xmlns="http://www.w3.org/2000/svg" viewBox="0 0 2560 1600"><path fill="#127CC1" d="M2478.72 454.403C2364.834-100.744 1290.63-135.9 598.194 287.048v46.712C1289.72-23.19 2270.966-20.914 2360.257 490.463c30.088 169.408-64.676 345.6-234.592 446.977v132.67c204.542-75.048 413.622-317.95 353.054-615.707m-1259.152 971.975c-477.868 44.23-975.784-25.388-1045.49-400.268-34.62-184.596 49.655-380.52 160.816-502.078v-65.085C134.45 635.377 25.57 858.54 88.434 1122.035c80.174 338.135 507.482 529.535 1159.837 465.806 258.295-24.936 596.323-108.393 830.915-237.863v-183.94c-213.193 127.67-565.796 233.15-859.617 260.34z"/><path fill="#127CC1" d="M2146.218 417.98c7.19 0 14.212 1.807 21.062 5.42 6.85 3.61 12.187 8.778 16.01 15.5 3.822 6.725 5.733 13.735 5.733 21.033 0 7.223-1.882 14.17-5.648 20.837-3.767 6.668-9.046 11.845-15.84 15.53-6.793 3.686-13.9 5.53-21.317 5.53s-14.525-1.844-21.318-5.53c-6.794-3.685-12.083-8.862-15.867-15.53-3.785-6.668-5.678-13.614-5.678-20.837 0-7.298 1.92-14.308 5.763-21.032 3.84-6.722 9.188-11.89 16.038-15.5 6.85-3.613 13.87-5.42 21.062-5.42zm0 6.947c-6.018 0-11.875 1.51-17.57 4.528-5.697 3.02-10.154 7.335-13.37 12.947-3.217 5.612-4.826 11.456-4.826 17.53 0 6.04 1.58 11.827 4.74 17.365 3.16 5.538 7.58 9.854 13.257 12.947 5.676 3.093 11.6 4.64 17.768 4.64s12.093-1.547 17.77-4.64 10.085-7.41 13.227-12.947c3.14-5.538 4.712-11.326 4.712-17.364 0-6.075-1.6-11.92-4.797-17.53-3.198-5.613-7.656-9.928-13.37-12.948-5.715-3.018-11.563-4.528-17.542-4.528zm-18.79 58.176v-45.12h15.838c5.412 0 9.33.418 11.752 1.252 2.422.833 4.35 2.287 5.79 4.362 1.438 2.074 2.158 4.278 2.158 6.612 0 3.296-1.202 6.167-3.606 8.61s-5.59 3.817-9.565 4.113c1.627.667 2.933 1.464 3.917 2.39 1.854 1.778 4.125 4.76 6.813 8.946l5.62 8.834h-9.083l-4.088-7.113c-3.217-5.592-5.81-9.093-7.778-10.5-1.362-1.037-3.35-1.557-5.96-1.557h-4.372v19.17h-7.437zm7.436-25.393h9.027c4.315 0 7.258-.63 8.83-1.89 1.568-1.258 2.354-2.925 2.354-5 0-1.334-.38-2.528-1.134-3.584-.758-1.056-1.81-1.843-3.152-2.362-1.344-.518-3.832-.777-7.465-.777h-8.46v13.613z"/><g fill="#127CC1"><path d="M571.49 615.61h-37.72c-9.953 0-19.045 5.82-23.747 15.22l-67.795 137.387-67.813-137.42c-4.684-9.368-13.776-15.188-23.729-15.188h-37.72c-14.28 0-25.9 11.618-25.9 25.9v316.484c0 8.344 6.443 14.4 15.32 14.4h46.46c8.056 0 14.86-7.647 14.86-16.7V764.037l34.114 67.172.103.194c3.946 7.235 12.11 11.73 21.305 11.73h46.46c9.195 0 17.36-4.495 21.305-11.73l33.756-67.152v191.442c0 9.053 6.805 16.7 14.86 16.7h46.46c8.877 0 15.32-6.056 15.32-14.4V641.51c0-14.282-11.62-25.9-25.9-25.9zM733.404 694.73c-36.572 0-66.87 12.128-87.617 35.073-19.512 21.58-29.825 51.652-29.825 86.97v37.26c0 35.318 10.313 65.39 29.825 86.97 20.747 22.943 51.044 35.07 87.617 35.07s66.87-12.127 87.617-35.07c19.512-21.58 29.825-51.652 29.825-86.97v-37.26c0-35.318-10.313-65.392-29.824-86.97-20.747-22.945-51.044-35.072-87.616-35.072zm41.72 159.303c0 20.392-5.42 54.6-41.72 54.6s-41.72-34.208-41.72-54.6v-37.26c0-20.392 5.42-54.602 41.72-54.602s41.72 34.21 41.72 54.602v37.26zM1005.26 694.73c-27.39 0-45.34 4.176-67.368 16.528-1.572-7.587-8.308-13.307-16.354-13.307h-40.02c-9.21 0-16.7 7.492-16.7 16.7v240.584c0 9.302 7.647 17.16 16.7 17.16h42.32c9.053 0 16.7-7.858 16.7-17.16V774.89c18.674-9.412 32.515-13.64 44.48-13.64 18.95 0 23.997 3.59 26.628 7.466 4.16 6.127 4.974 18.043 4.974 36.555v149.964c0 9.302 7.647 17.16 16.7 17.16h42.32c9.053 0 16.7-7.858 16.7-17.16V805.27c0-35.362-5.116-59.963-16.102-77.42-14.024-22.287-37.24-33.12-70.98-33.12zM1223.757 694.73c-36.572 0-66.87 12.128-87.617 35.073-19.512 21.578-29.825 51.652-29.825 86.97v37.26c0 35.318 10.313 65.39 29.825 86.97 20.747 22.943 51.044 35.07 87.617 35.07s66.87-12.127 87.616-35.07c19.512-21.58 29.825-51.652 29.825-86.97v-37.26c0-35.318-10.313-65.39-29.825-86.97-20.747-22.945-51.044-35.072-87.616-35.072zm41.72 159.303c0 20.392-5.42 54.6-41.72 54.6s-41.72-34.208-41.72-54.6v-37.26c0-20.392 5.42-54.602 41.72-54.602s41.72 34.21 41.72 54.602v37.26zM1467.553 694.73c-29.473 0-64.74 4.56-94.355 12.204-11.13 2.903-18.027 7.207-18.027 19.677v320.165c0 9.21 7.492 16.7 16.7 16.7h42.32c9.21 0 16.702-7.49 16.702-16.7v-72.94c12.834 1.437 25.826 2.24 36.66 2.24 38.358 0 68.057-11.19 88.274-33.255 19.355-21.125 29.168-51.306 29.168-89.707v-35.42c0-38.4-9.813-68.584-29.168-89.71-20.217-22.064-49.916-33.252-88.273-33.252zm41.72 158.383c0 41.396-12.086 58.28-41.72 58.28-8.628 0-24.12-.907-36.66-2.328V761.5c9.44-1.237 23.796-2.086 36.66-2.086 29.633 0 41.72 16.885 41.72 58.28v35.42zM1707.21 694.73c-36.572 0-66.87 12.128-87.616 35.073-19.512 21.58-29.825 51.652-29.825 86.97v37.26c0 35.318 10.312 65.39 29.824 86.97 20.747 22.943 51.044 35.07 87.616 35.07s66.87-12.127 87.617-35.07c19.512-21.58 29.825-51.652 29.825-86.97v-37.26c0-35.318-10.313-65.392-29.825-86.97-20.747-22.945-51.045-35.072-87.617-35.072zm41.72 159.303c0 20.392-5.42 54.6-41.72 54.6s-41.72-34.208-41.72-54.6v-37.26c0-20.392 5.42-54.602 41.72-54.602s41.72 34.21 41.72 54.602v37.26zM1900.405 607.33h-42.78c-9.21 0-16.7 7.49-16.7 16.7v331.204c0 9.302 7.646 17.16 16.7 17.16h42.78c8.954 0 16.24-7.698 16.24-17.16V624.03c0-9.365-7.133-16.7-16.24-16.7zM2156.16 697.95h-46.92c-7.772 0-14.69 5.704-16.495 13.58l-46.4 184.74L2000.617 712c-1.563-6.83-7.69-14.05-16.038-14.05h-46.462c-9.865 0-16.24 5.834-16.24 14.86 0 1.19 0 2.974.788 5.42l60.23 210.57c10.533 36.392 28.824 42.904 44.376 43.54l-1.174 4.404c-5.46 20.28-12.37 23.89-29.1 23.89-7.435 0-20.025-.828-31.133-1.56-7.852-.516-15.27-1.005-20.58-1.194l-1.186-.005c-9.522 0-16.702 6.784-16.702 15.78v29.44c0 10.827 10.856 13.875 15.085 15.03 11.082 3.344 34.786 6.27 50.836 6.27 32.812 0 54.368-5.888 69.892-19.094 16.814-14.302 24.914-36.604 31.16-58.563l76.68-268.147c.89-2.182.89-4.113.89-5.32 0-8.447-7.08-15.32-15.78-15.32z"/></g></svg>