<svg xmlns="http://www.w3.org/2000/svg" width="200" height="200" xmlns:xlink="http://www.w3.org/1999/xlink" viewBox="0 0 44.227112 44.189651"><g transform="translate(429.572 78.124)"><use width="744.094" height="1052.362" transform="scale(.692) rotate(-67.5 -516.304 66.772)" xlink:href="#a"/><use width="744.094" height="1052.362" transform="scale(.692) rotate(-22.5 -560.51 386.558)" xlink:href="#a"/><use width="744.094" height="1052.362" transform="rotate(45 -373.444 -113.506) scale(.8764)" xlink:href="#a"/><g id="a" transform="matrix(.10112 0 0 .10112 -421.453 -121.35)"><g id="b" stroke="#000" stroke-width="2.323"><path fill="#fff" d="M142 640.38l1 1 38.06-38.07-38.03-141.25-1.03 3.85z" transform="matrix(.7412 0 0 1 37.017 0)"/><path fill="#336" d="M142 640.38V465.91l-37 137.4z" transform="matrix(.7412 0 0 1 37.017 0)"/></g><use width="744.094" height="1052.362" transform="rotate(90 143.03 643.72)" xlink:href="#b"/><use width="744.094" height="1052.362" transform="rotate(180 143.03 643.7)" xlink:href="#b"/><use width="744.094" height="1052.362" transform="rotate(-90 143.03 643.72)" xlink:href="#b"/></g><path d="M-405.824-75.176h-.436l-1.517-2.394v2.394h-.38v-2.948h.44l1.513 2.39v-2.39h.38v2.948M-405.844-34.86c0 .285-.12.515-.364.69-.218.156-.476.235-.772.235-.332 0-.604-.092-.817-.275-.227-.195-.34-.457-.34-.785h.38c0 .227.068.404.202.537.135.132.315.198.538.198.184 0 .35-.042.502-.13.18-.103.27-.24.27-.412 0-.21-.154-.363-.464-.46-.288-.08-.575-.162-.86-.247-.314-.136-.47-.356-.47-.658 0-.275.107-.494.32-.656.194-.148.432-.222.715-.222.3 0 .548.082.745.243.215.175.323.41.323.704h-.38c0-.195-.062-.348-.186-.462-.124-.11-.284-.17-.48-.17-.17 0-.317.043-.446.123-.153.098-.23.225-.23.384 0 .2.157.347.47.437.29.083.582.165.873.244.316.14.473.368.473.685M-425.89-57.735l-.782 2.948h-.396l-.676-2.435-.647 2.435h-.41l-.772-2.948h.397l.602 2.358.623-2.358h.42l.644 2.34.615-2.34h.38M-385.345-54.787h-2.143v-2.948h2.112v.36h-1.71v.886h1.572v.344h-1.572v.995h1.74v.363M-419.904-68.332h-.306l-1.062-1.676v1.676h-.266v-2.064h.31l1.058 1.673v-1.673h.266v2.064m2.806-2.064l-.546 2.064h-.278l-.472-1.704-.453 1.704h-.286l-.54-2.064h.276l.422 1.65.436-1.65h.296l.45 1.64.43-1.64h.266M-395.306-42.27c0 .202-.085.364-.257.485-.15.11-.333.167-.54.167-.232 0-.423-.066-.57-.193-.16-.14-.24-.32-.24-.55h.268c0 .157.045.284.14.374.096.093.22.14.376.14.13 0 .247-.03.353-.09.127-.074.19-.17.19-.288 0-.148-.108-.257-.325-.323l-.603-.174c-.22-.097-.328-.25-.328-.462 0-.193.074-.346.222-.46.136-.103.303-.154.502-.154.21 0 .38.056.518.17.154.122.228.286.228.492h-.268c0-.135-.042-.243-.13-.323-.086-.08-.198-.12-.335-.12-.117 0-.222.03-.312.086-.106.068-.162.157-.162.27 0 .14.112.24.33.303l.61.172c.223.098.334.257.334.476m1.71.596h-1.504v-2.063h1.48v.25h-1.197v.623h1.1v.24h-1.1v.696h1.22v.254M-418.96-43.737l-.548 2.063h-.277l-.473-1.703-.453 1.703h-.287l-.54-2.063h.277l.422 1.65.436-1.65h.294l.45 1.64.43-1.64h.267m1.665 1.468c0 .202-.085.364-.255.485-.152.11-.333.167-.54.167-.233 0-.423-.066-.572-.193-.16-.14-.238-.32-.238-.55h.266c0 .157.047.284.142.374.094.093.22.14.376.14.128 0 .246-.03.35-.09.128-.074.19-.17.19-.288 0-.148-.108-.257-.325-.323l-.604-.174c-.22-.097-.328-.25-.328-.462 0-.193.075-.346.223-.46.137-.103.304-.154.503-.154.21 0 .383.056.52.17.152.122.227.286.227.492h-.266c0-.135-.044-.243-.13-.323-.087-.08-.2-.12-.337-.12-.117 0-.22.03-.312.086-.107.068-.16.157-.16.27 0 .14.11.24.327.303l.612.172c.22.098.33.257.33.476M-395.327-68.332h-.307l-1.06-1.676v1.676h-.268v-2.064h.31l1.057 1.673v-1.673h.268v2.064m1.73 0h-1.503v-2.064h1.48v.252h-1.197v.62h1.1v.24h-1.1v.697h1.22v.255"/></g></svg>